<svg width="50" height="46" viewBox="0 0 50 46" fill="none" xmlns="http://www.w3.org/2000/svg">
<path d="M49.7272 32.5112C49.0886 31.1298 47.5244 30.4689 46.0889 30.9738L43.8764 31.7519L41.5087 29.6632C38.4636 26.9767 34.2994 26.0544 30.4817 27.0558V24.9958L34.8364 20.4924C35.0809 20.2396 35.3196 19.9671 35.5459 19.6826C35.7977 19.3661 35.7452 18.9055 35.4286 18.6537C35.1121 18.402 34.6516 18.4545 34.3997 18.7709C34.2025 19.0187 33.9953 19.2554 33.7835 19.4744L30.0783 23.3061L28.449 18.131C27.9504 16.5473 28.3461 14.811 29.4816 13.5997L32.1131 10.7928C32.3561 10.5336 32.5657 10.2439 32.736 9.93174L34.3748 6.92725C34.3795 6.91846 34.3908 6.89786 34.4241 6.89523C34.4577 6.89327 34.4717 6.91114 34.4778 6.91905C36.5302 9.57391 37.0507 13.0355 35.8698 16.1788C35.7276 16.5575 35.9192 16.9796 36.2978 17.1219C36.6764 17.2641 37.0986 17.0726 37.2408 16.694C38.6015 13.0718 38.0017 9.08281 35.6364 6.02336C35.3201 5.61417 34.8235 5.39459 34.3079 5.4355C33.7924 5.47651 33.3367 5.77205 33.089 6.22614L31.4502 9.23063C31.3393 9.43391 31.2028 9.62253 31.0446 9.79144L30.7838 10.0696C30.7729 9.58319 30.7116 9.10673 30.5987 8.64248C30.5141 8.29481 30.2628 8.01382 29.9264 7.8907C29.5895 7.76749 29.2156 7.82011 28.9262 8.03139L26.4464 9.84172C24.304 11.4058 23.0702 13.8242 23.0615 16.4768C23.0528 19.1294 24.2706 21.5558 26.4028 23.134L29.0169 25.0689V27.5416C28.5916 27.7142 28.1733 27.9121 27.7645 28.1364L21.3348 31.6621H20.888C19.8805 30.7609 18.5936 30.268 17.231 30.268H8.07979C7.72695 29.6513 7.06372 29.2338 6.30374 29.2338H0.732255C0.327855 29.2338 0 29.5616 0 29.966C0 30.3704 0.327855 30.6983 0.732255 30.6983H6.30403C6.62476 30.6983 6.88573 30.9593 6.88573 31.28V33.4342C6.88573 33.8386 7.21359 34.1664 7.61799 34.1664C8.02239 34.1664 8.35024 33.8386 8.35024 33.4342V31.7325H17.2313C18.3072 31.7325 19.3186 32.1515 20.0794 32.9122C20.2167 33.0496 20.403 33.1267 20.5971 33.1267H29.6361C30.6802 33.1267 31.5296 33.9761 31.5296 35.0202C31.5296 36.0643 30.6802 36.9138 29.6361 36.9138H22.3063C21.9674 36.9138 21.6489 37.0458 21.4095 37.2853L20.149 38.5457C19.863 38.8317 19.863 39.2953 20.149 39.5812C20.2919 39.7242 20.4794 39.7957 20.6668 39.7957C20.8541 39.7957 21.0416 39.7243 21.1845 39.5812L22.3875 38.3783H29.636C30.4905 38.3783 31.271 38.057 31.8643 37.5294L46.5746 32.3559C47.2943 32.1028 48.0778 32.4341 48.3977 33.1262C48.7287 33.8422 48.4393 34.687 47.739 35.0497L31.8708 43.2672C30.9419 43.7482 29.8979 44.0026 28.8518 44.0026H27.5722C27.1678 44.0026 26.84 44.3304 26.84 44.7348C26.84 45.1392 27.1678 45.4671 27.5722 45.4671H28.8518C30.1312 45.4671 31.4081 45.156 32.5442 44.5678L48.4124 36.3503C49.8103 35.6259 50.3877 33.9398 49.7272 32.5112ZM24.5262 16.4814C24.5334 14.2998 25.5481 12.3108 27.3102 11.0244L29.2834 9.58377C29.3708 10.311 29.3049 11.0793 29.0903 11.8758L28.4133 12.598C26.9165 14.1946 26.3949 16.4833 27.0522 18.5708L28.3746 22.7709L27.2743 21.9565C25.5207 20.6587 24.5191 18.663 24.5262 16.4814ZM29.6361 31.6618H24.381L28.4689 29.4203C32.3606 27.2862 37.2116 27.8252 40.5399 30.7615L42.2937 32.3087L32.9435 35.5971C32.9762 35.4094 32.9941 35.2167 32.9941 35.0199C32.9941 33.1682 31.4877 31.6618 29.6361 31.6618Z" fill="white"/>
<path d="M24.4517 44.002H15.1941C13.6225 44.002 12.1011 43.4372 10.9102 42.4117L10.4793 42.0407C10.3465 41.9263 10.1769 41.8633 10.0015 41.8633H8.35024V36.5565C8.35024 36.1521 8.02239 35.8243 7.61799 35.8243C7.21359 35.8243 6.88573 36.1521 6.88573 36.5565V42.4106C6.88573 42.7314 6.62476 42.9923 6.30403 42.9923H0.732255C0.327855 42.9923 0 43.3202 0 43.7246C0 44.129 0.327855 44.4569 0.732255 44.4569H6.30403C7.10238 44.4569 7.79353 43.9962 8.13056 43.3278H9.72961L9.95446 43.5214C11.4111 44.7757 13.2719 45.4665 15.194 45.4665H24.4516C24.856 45.4665 25.1839 45.1386 25.1839 44.7342C25.1839 44.3298 24.8561 44.002 24.4517 44.002Z" fill="white"/>
<path d="M19.6013 27.4333C19.7405 27.5557 19.9131 27.616 20.0849 27.616C20.288 27.616 20.4901 27.532 20.6348 27.3676C20.902 27.0641 20.8726 26.6014 20.5691 26.3342C17.5696 23.6933 15.8493 19.8894 15.8493 15.8978C15.8493 11.9061 17.5696 8.10218 20.5691 5.46138C20.8726 5.19416 20.902 4.73137 20.6348 4.42793C20.3675 4.12438 19.9049 4.09499 19.6013 4.36222C16.2862 7.28098 14.3848 11.4856 14.3848 15.8979C14.3848 20.3101 16.2862 24.5145 19.6013 27.4333Z" fill="white"/>
<path d="M39.0005 26.2704C38.6988 26.5397 38.6725 27.0026 38.9418 27.3043C39.0865 27.4664 39.287 27.5489 39.4884 27.5489C39.6619 27.5489 39.8361 27.4876 39.9758 27.3629C43.2406 24.4485 45.1132 20.2696 45.1132 15.8976C45.1132 11.5256 43.2406 7.34659 39.9758 4.43222C39.6741 4.16295 39.2111 4.18911 38.9418 4.4909C38.6725 4.79259 38.6988 5.25557 39.0005 5.52484C41.9544 8.16164 43.6487 11.9424 43.6487 15.8977C43.6487 19.8529 41.9545 23.6337 39.0005 26.2704Z" fill="white"/>
<path d="M27.6043 2.16193C29.211 1.91307 30.8808 1.94782 32.4763 2.26494C32.5246 2.27451 32.5725 2.27919 32.6199 2.27919C32.9621 2.27919 33.268 2.03804 33.3373 1.68958C33.4162 1.2929 33.1585 0.907437 32.7618 0.828647C30.999 0.478239 29.1551 0.439771 27.3801 0.714708C26.9804 0.776608 26.7067 1.15074 26.7685 1.55045C26.8303 1.95017 27.2042 2.22374 27.6043 2.16193Z" fill="white"/>
</svg>
