<svg width="50" height="47" viewBox="0 0 50 47" fill="none" xmlns="http://www.w3.org/2000/svg">
<path d="M0 33.1228C0 33.5272 0.327633 33.8548 0.731977 33.8548H7.8953C8.16974 33.8548 8.4357 33.7746 8.66466 33.6226L9.02108 33.3858C9.92903 32.7827 10.985 32.464 12.0748 32.464H17.1762C18.2517 32.464 19.2627 32.8827 20.0231 33.6432C20.1603 33.7805 20.3465 33.8576 20.5407 33.8576H24.1741C24.5784 33.8576 24.9061 33.53 24.9061 33.1257C24.9061 32.7213 24.5784 32.3937 24.1741 32.3937H20.8318C19.8248 31.4927 18.5383 31 17.1763 31H12.0749C10.6959 31 9.35994 31.4034 8.21122 32.1664L7.87315 32.3909H0.731977C0.327633 32.3909 0 32.7185 0 33.1228H0Z" fill="white"/>
<path d="M46.0229 31.7059L32.8824 36.3273C32.915 36.1398 32.933 35.9471 32.933 35.7503C32.933 33.8995 31.4272 32.3937 29.5763 32.3937H27.2934C26.889 32.3937 26.5614 32.7213 26.5614 33.1257C26.5614 33.53 26.889 33.8576 27.2934 33.8576H29.5763C30.6199 33.8576 31.4691 34.7066 31.4691 35.7503C31.4691 36.794 30.62 37.6431 29.5763 37.6431H22.2494C21.9107 37.6431 21.5924 37.7751 21.3528 38.0145L20.0929 39.2744C19.8069 39.5602 19.8069 40.0237 20.0928 40.3095C20.2358 40.4525 20.423 40.5239 20.6104 40.5239C20.7977 40.5239 20.9851 40.4525 21.128 40.3096L22.3306 39.1071H29.5763C30.4304 39.1071 31.2107 38.7859 31.8037 38.2586L46.5086 33.0871C47.2276 32.834 48.0112 33.1652 48.331 33.8572C48.6618 34.5727 48.3726 35.4172 47.6725 35.7798L31.8104 43.9942C30.8818 44.475 29.8383 44.7292 28.7926 44.7292H15.1397C13.5688 44.7292 12.048 44.1647 10.8575 43.1396L10.4268 42.7686C10.2939 42.6542 10.1244 42.5913 9.94903 42.5913H0.731977C0.327633 42.5913 0 42.9189 0 43.3233C0 43.7276 0.327633 44.0553 0.731977 44.0553H9.67732L9.90219 44.2489C11.3583 45.5026 13.2184 46.1931 15.1397 46.1931H28.7926C30.0715 46.1931 31.348 45.8822 32.4836 45.2942L48.3457 37.0798C49.7427 36.3562 50.32 34.6707 49.6598 33.2428C49.0215 31.862 47.4582 31.2008 46.0229 31.7059Z" fill="white"/>
<path d="M34.4122 16.6308L32.298 15.8719C32.3121 15.6232 32.3121 15.3778 32.298 15.128L34.412 14.3691C34.8759 14.2029 35.1146 13.698 34.9458 13.2406L34.2278 11.2949C34.0595 10.8388 33.5459 10.6025 33.0834 10.7685L30.9694 11.5274C30.8189 11.3291 30.6567 11.1388 30.4843 10.9578L31.6093 9.03621C31.8555 8.61578 31.7088 8.07609 31.2825 7.8333L29.4643 6.79817C29.2578 6.68048 29.0173 6.64904 28.7868 6.71013C28.5566 6.77099 28.3639 6.91675 28.2448 7.12045L27.1203 9.04093C26.876 8.98456 26.6275 8.94166 26.377 8.91269L25.9864 6.72764C25.9008 6.24949 25.4369 5.92922 24.9521 6.01344L22.8845 6.37279C22.3997 6.45724 22.0747 6.91473 22.1603 7.39288L22.5509 9.57703C22.3266 9.6891 22.1082 9.81352 21.8975 9.94985L20.1743 8.5237C19.7956 8.21017 19.2331 8.26003 18.9165 8.6324L17.567 10.2185C17.2498 10.5911 17.299 11.146 17.677 11.4589L19.3996 12.8844C19.3003 13.1125 19.214 13.3466 19.1413 13.5842H16.8927C16.4004 13.5842 16 13.9792 16 14.4648V16.5351C16 17.0206 16.4004 17.4157 16.8927 17.4157H19.1413C19.214 17.6535 19.3003 17.8873 19.3996 18.1155L17.677 19.5408C17.2999 19.853 17.2505 20.4095 17.567 20.7816L18.9165 22.3677C19.2329 22.7394 19.7972 22.7881 20.1743 22.4762L21.8975 21.05C22.1082 21.1864 22.3266 21.3108 22.5509 21.4228L22.1603 23.607C22.0747 24.0863 22.3985 24.5424 22.8845 24.6271L24.9521 24.9864C25.4344 25.0709 25.9006 24.7524 25.9864 24.2722L26.377 22.0872C26.6275 22.0582 26.876 22.0153 27.1205 21.9589L28.2448 23.8794C28.491 24.3001 29.038 24.4447 29.4646 24.2019L31.2828 23.1666C31.7091 22.9238 31.8555 22.3843 31.6093 21.9639L30.4843 20.0421C30.6567 19.8613 30.8189 19.6708 30.9694 19.4725L33.0834 20.2314C33.5464 20.3974 34.0586 20.1633 34.2278 19.705L34.9458 17.7595C35.1146 17.3021 34.8761 16.7972 34.4122 16.6308ZM34.1219 17.4635L33.4038 19.4092C33.4029 19.4112 33.4016 19.4152 33.3954 19.4179C33.3895 19.4208 33.3854 19.4193 33.3834 19.4186L30.9555 18.547C30.766 18.4791 30.554 18.5472 30.4415 18.7123C30.2081 19.055 29.9364 19.3741 29.6338 19.6607C29.4882 19.7986 29.4568 20.0165 29.5577 20.1887L30.8498 22.396C30.8544 22.4036 30.8517 22.4133 30.8442 22.4176L29.026 23.4527C29.0184 23.4572 29.0086 23.4545 29.0041 23.4471L27.7126 21.2412C27.612 21.0689 27.405 20.9867 27.2112 21.0419C26.8104 21.1563 26.3943 21.2281 25.9744 21.2555C25.7731 21.2686 25.6066 21.4157 25.5715 21.612L25.1229 24.122C25.1213 24.1305 25.1131 24.1361 25.1042 24.1348C25.0801 24.1305 23.0196 23.7811 23.0239 23.757L23.4725 21.2483C23.5074 21.0525 23.4024 20.8582 23.2181 20.7778C22.8356 20.6107 22.4698 20.4021 22.1312 20.1577C21.9679 20.0398 21.7447 20.0475 21.5903 20.1752L19.6107 21.8134C19.6041 21.819 19.594 21.8181 19.5883 21.8116L18.2388 20.2256C18.2331 20.2188 18.234 20.2089 18.2406 20.2033L20.2194 18.5658C20.3742 18.4378 20.4202 18.2222 20.331 18.0437C20.1461 17.6729 20.0015 17.2814 19.9017 16.8801C19.8537 16.6867 19.6778 16.5508 19.4759 16.5508H16.8927C16.8838 16.5508 16.8768 16.5438 16.8768 16.5351V14.4646C16.8768 14.456 16.8838 14.4489 16.8927 14.4489H19.4759C19.6778 14.4489 19.8534 14.313 19.9017 14.1196C20.0015 13.7185 20.1461 13.327 20.331 12.9562C20.4202 12.7774 20.3742 12.5618 20.2194 12.4338L18.2406 10.7963C18.239 10.7952 18.2356 10.7923 18.2349 10.7858C18.2345 10.7793 18.2372 10.7759 18.2388 10.7743L19.5881 9.18826C19.5897 9.18669 19.5924 9.18332 19.5991 9.18265C19.6057 9.1822 19.6091 9.18489 19.6107 9.18624L21.5903 10.8244C21.745 10.9526 21.9684 10.9598 22.1312 10.8421C22.4698 10.5976 22.8356 10.3889 23.2181 10.2221C23.4024 10.1417 23.5074 9.94738 23.4725 9.75154L23.0239 7.24286C23.0223 7.23432 23.0282 7.22601 23.0369 7.22466L25.1044 6.86509C25.1065 6.86487 25.1108 6.86397 25.1163 6.86779C25.1217 6.87138 25.1224 6.87587 25.1229 6.8779L25.5715 9.38792C25.6066 9.58399 25.7731 9.73132 25.9744 9.74435C26.3945 9.77175 26.8106 9.84362 27.2112 9.95793C27.405 10.0132 27.612 9.93098 27.7129 9.75895L29.0041 7.55279C29.0052 7.55099 29.0075 7.54718 29.0139 7.5456C29.0203 7.54381 29.0241 7.54605 29.026 7.54718L30.8442 8.58232C30.8517 8.58658 30.8544 8.59624 30.8501 8.60388L29.5577 10.8112C29.4568 10.9834 29.4882 11.2013 29.6338 11.3392C29.9364 11.626 30.2083 11.9451 30.4415 12.2876C30.554 12.4527 30.766 12.5205 30.9555 12.4527L33.3834 11.5813C33.3915 11.5786 33.4007 11.5826 33.4038 11.5907L34.1219 13.5363C34.1226 13.5384 34.1242 13.5424 34.1212 13.5482C34.1185 13.5543 34.1144 13.5557 34.1123 13.5566L31.684 14.428C31.4948 14.496 31.3768 14.6827 31.3982 14.8803C31.4413 15.278 31.4447 15.6902 31.3982 16.1196C31.3768 16.3172 31.4948 16.5039 31.684 16.5719L34.1123 17.4433C34.1144 17.4442 34.1185 17.4456 34.1212 17.4516C34.1242 17.4575 34.1226 17.4615 34.1219 17.4635Z" fill="white"/>
<path d="M29.2078 13.1292L23.9908 18.0887L21.7922 15.9986C21.6109 15.8265 21.3172 15.8265 21.1359 15.9986C20.9547 16.1709 20.9547 16.4501 21.1359 16.6224L23.3864 18.7618C23.7204 19.0794 24.2612 19.0794 24.5953 18.7618L29.8641 13.7531C30.0453 13.5808 30.0453 13.3015 29.8641 13.1292C29.6828 12.9569 29.3891 12.9569 29.2078 13.1292Z" fill="white"/>
<path d="M15.2166 26.8996C15.3557 27.022 15.5283 27.0823 15.7002 27.0823C15.9032 27.0823 16.1053 26.9983 16.25 26.8339C16.5173 26.5304 16.4879 26.0677 16.1843 25.8004C13.1848 23.1596 11.4645 19.3557 11.4645 15.3641C11.4645 11.3724 13.1848 7.56848 16.1843 4.92767C16.4879 4.66045 16.5173 4.19767 16.25 3.89422C15.9827 3.59067 15.5201 3.56129 15.2166 3.82851C11.9014 6.74728 10 10.9519 10 15.3642C10 19.7764 11.9014 23.9808 15.2166 26.8996Z" fill="white"/>
<path d="M34.6157 25.7367C34.314 26.0059 34.2878 26.4689 34.557 26.7706C34.7017 26.9327 34.9022 27.0152 35.1036 27.0152C35.2771 27.0152 35.4514 26.9539 35.591 26.8292C38.8559 23.9148 40.7284 19.7359 40.7284 15.3639C40.7284 10.9919 38.8559 6.81289 35.591 3.89851C35.2893 3.62924 34.8263 3.65541 34.557 3.95719C34.2878 4.25888 34.314 4.72186 34.6157 4.99113C37.5696 7.62793 39.2639 11.4087 39.2639 15.364C39.2639 19.3192 37.5697 23.1 34.6157 25.7367Z" fill="white"/>
<path d="M23.2196 1.62824C24.8262 1.37937 26.496 1.41413 28.0916 1.73125C28.1398 1.74082 28.1877 1.7455 28.2351 1.7455C28.5773 1.7455 28.8833 1.50435 28.9525 1.15589C29.0314 0.759205 28.7737 0.373746 28.3771 0.294956C26.6143 -0.0554523 24.7704 -0.0939201 22.9953 0.181017C22.5957 0.242917 22.3219 0.61705 22.3837 1.01676C22.4455 1.41648 22.8194 1.69005 23.2196 1.62824Z" fill="white"/>
<path d="M23.2196 28.1172C24.8262 28.3661 26.496 28.3314 28.0916 28.0142C28.1398 28.0047 28.1877 28 28.2351 28C28.5773 28 28.8833 28.2411 28.9525 28.5896C29.0314 28.9863 28.7737 29.3717 28.3771 29.4505C26.6143 29.8009 24.7704 29.8394 22.9953 29.5645C22.5957 29.5026 22.3219 29.1284 22.3837 28.7287C22.4455 28.329 22.8194 28.0554 23.2196 28.1172Z" fill="white"/>
</svg>
