<svg width="48" height="50" viewBox="0 0 48 50" fill="none" xmlns="http://www.w3.org/2000/svg">
<path d="M44.1724 12.9715C42.5251 12.9715 41.1657 14.2601 41.0778 15.9052L40.6658 23.6243C39.9066 23.4754 39.0938 23.6581 38.4514 24.1841L38.1483 24.4324C38.2579 24.2295 38.3648 24.0249 38.4662 23.8171C38.6434 23.4533 38.4923 23.0145 38.1285 22.8372C37.7648 22.66 37.3259 22.811 37.1487 23.1749C35.9259 25.6832 34.0337 27.804 31.6765 29.3079C29.256 30.8522 26.4517 31.6685 23.5665 31.6685C20.6812 31.6685 17.8768 30.8522 15.4564 29.3079C13.0992 27.8039 11.207 25.6832 9.98421 23.1749C9.80706 22.8111 9.36823 22.66 9.00444 22.8372C8.64056 23.0145 8.4894 23.4533 8.66684 23.8171C8.73475 23.9565 8.80599 24.094 8.87761 24.2312L8.82006 24.1841C8.17789 23.6579 7.36492 23.4754 6.60578 23.6242L6.19363 15.9051C6.10579 14.26 4.74641 12.9714 3.09906 12.9714C1.39026 12.9714 0 14.3617 0 16.0704V28.6367C0 29.701 0.371505 30.7406 1.04611 31.5639L2.70958 33.5939C2.85439 33.7708 3.06477 33.8623 3.2768 33.8622C3.44028 33.8622 3.60463 33.8078 3.74094 33.6962C4.05401 33.4397 4.09984 32.9779 3.84324 32.6649L2.17978 30.635C1.71936 30.073 1.46569 29.3633 1.46569 28.6368V16.0705C1.46569 15.1698 2.19844 14.4372 3.09906 14.4372C3.96734 14.4372 4.68377 15.1164 4.72999 15.9834L5.17986 24.4091C4.17957 25.458 4.19384 27.1246 5.22422 28.1551L9.81517 32.7461C10.1015 33.0323 10.5654 33.0323 10.8516 32.7461C11.1378 32.4599 11.1378 31.9958 10.8516 31.7097L6.26066 27.1188C5.78646 26.6446 5.78646 25.873 6.26066 25.3989C6.70457 24.9551 7.40547 24.9203 7.8912 25.318L18.026 33.62C18.4857 33.9966 18.7494 34.5535 18.7494 35.1478V41.1521H8.12962V38.1577C8.12962 37.9884 8.07089 37.8242 7.9636 37.6932L5.8232 35.0812C5.56661 34.768 5.10491 34.7225 4.79184 34.9789C4.47877 35.2354 4.43294 35.6972 4.68954 36.0103L6.66392 38.4197V41.3795C5.84538 41.7641 5.27708 42.596 5.27708 43.5587V49.2673C5.27708 49.672 5.60511 50.0001 6.00993 50.0001C6.41476 50.0001 6.74278 49.672 6.74278 49.2673V47.0687H20.1362V49.2673C20.1362 49.672 20.4642 50.0001 20.869 50.0001C21.2739 50.0001 21.6019 49.672 21.6019 49.2673V43.5587C21.6019 42.596 21.0336 41.764 20.215 41.3795V35.1479C20.215 34.1126 19.7557 33.1425 18.9548 32.4863L18.9475 32.4804C20.438 32.9122 21.9914 33.1345 23.5665 33.1345C25.2201 33.1345 26.849 32.8876 28.407 32.4125L28.3167 32.4864C27.5159 33.1426 27.0565 34.1127 27.0565 35.148V41.3797C26.238 41.7643 25.6697 42.5962 25.6697 43.5589V49.2675C25.6697 49.6722 25.9977 50.0003 26.4025 50.0003C26.8073 50.0003 27.1354 49.6722 27.1354 49.2675V47.0689H40.5288V49.2675C40.5288 49.6722 40.8568 50.0003 41.2616 50.0003C41.6665 50.0003 41.9945 49.6722 41.9945 49.2675V43.5589C41.9945 42.5962 41.4262 41.7643 40.6076 41.3797V38.4198L46.2254 31.5641C46.9001 30.7409 47.2716 29.7013 47.2716 28.637V16.0705C47.2715 14.3618 45.8813 12.9715 44.1724 12.9715ZM6.74278 45.6029V43.5586C6.74278 43.0397 7.1648 42.6177 7.68366 42.6177H19.1955C19.7143 42.6177 20.1363 43.0397 20.1363 43.5586V45.6029H6.74278ZM45.8058 28.6367C45.8058 29.3633 45.5521 30.0729 45.0917 30.6349L39.3079 37.6931C39.2005 37.8241 39.1418 37.9883 39.1418 38.1576V41.152H37.666C37.2612 41.152 36.9331 41.4801 36.9331 41.8849C36.9331 42.2896 37.2612 42.6177 37.666 42.6177H39.5879C40.1068 42.6177 40.5288 43.0397 40.5288 43.5586V45.6029H27.1353V43.5586C27.1353 43.0397 27.5573 42.6177 28.0761 42.6177H34.5428C34.9476 42.6177 35.2756 42.2896 35.2756 41.8849C35.2756 41.4801 34.9476 41.152 34.5428 41.152H28.5222V35.1477C28.5222 34.5534 28.7858 33.9965 29.2456 33.6199L39.3804 25.3179C39.8661 24.9201 40.5671 24.9549 41.0109 25.3988C41.4851 25.873 41.4851 26.6446 41.0109 27.1187L36.42 31.7096C36.1338 31.9958 36.1338 32.4599 36.42 32.746C36.7063 33.0322 37.1702 33.0322 37.4564 32.746L42.0473 28.155C43.0776 27.1246 43.0919 25.458 42.0917 24.4091L42.5415 15.9833C42.5878 15.1163 43.3042 14.4371 44.1724 14.4371C45.073 14.4371 45.8058 15.1698 45.8058 16.0704V28.6367Z" fill="white"/>
<path d="M28.6706 22.1717C28.398 22.4709 28.4195 22.9344 28.7186 23.207C29.0176 23.4796 29.4811 23.4582 29.7538 23.159L33.5196 19.0272C35.8697 16.4487 35.778 12.4965 33.3112 10.0295L33.2919 10.0103C30.751 7.46947 26.6169 7.46957 24.0759 10.0103L23.5603 10.526L23.0247 9.99271C20.4841 7.46224 16.3541 7.46634 13.8182 10.0021C11.3339 12.4864 11.256 16.4535 13.6409 19.0335L21.9926 28.0686C22.4152 28.5257 23.0138 28.7875 23.6361 28.7874H23.6439C24.2689 28.7853 24.869 28.519 25.2901 28.057L27.621 25.4996C27.8936 25.2004 27.8721 24.7369 27.573 24.4642C27.2739 24.1917 26.8103 24.2131 26.5377 24.5122L24.2069 27.0696C24.0594 27.2314 23.8577 27.3209 23.6388 27.3217C23.4184 27.3225 23.2175 27.2344 23.069 27.0736L14.7173 18.0386C12.8688 16.0389 12.9291 12.9641 14.8548 11.0384C16.8199 9.07304 20.0211 9.06991 21.9906 11.0312L23.0443 12.0806C23.3306 12.3659 23.7937 12.3654 24.0797 12.0796L25.1125 11.0467C27.0817 9.07753 30.2861 9.07743 32.2556 11.0467L32.2748 11.066C34.1869 12.978 34.2579 16.0413 32.4365 18.04L28.6706 22.1717Z" fill="white"/>
<path d="M10.5798 7.4768C10.9 7.72411 11.3603 7.66519 11.6078 7.34479C14.4938 3.60854 18.8523 1.46569 23.5659 1.46569C28.2794 1.46569 32.6378 3.60854 35.5238 7.34479C35.6682 7.53181 35.885 7.62972 36.1043 7.62972C36.2607 7.62972 36.4183 7.57979 36.5517 7.4768C36.872 7.22939 36.9311 6.76916 36.6837 6.44886C33.518 2.35048 28.7368 0 23.5659 0C18.3948 0 13.6134 2.35048 10.4479 6.44886C10.2004 6.76906 10.2595 7.22929 10.5798 7.4768Z" fill="white"/>
<path d="M8.02862 20.3701C8.07543 20.3701 8.12302 20.3656 8.1707 20.3562C8.5678 20.2782 8.82655 19.8929 8.74848 19.4958C8.5595 18.5346 8.46374 17.5492 8.46374 16.567C8.46374 14.653 8.81678 12.7884 9.51298 11.0246C9.6616 10.6482 9.47693 10.2225 9.10044 10.0739C8.72424 9.92547 8.29841 10.11 8.14979 10.4864C7.38558 12.4222 6.99805 14.4679 6.99805 16.567C6.99805 17.6438 7.10309 18.7243 7.31024 19.7784C7.37893 20.1279 7.68536 20.3701 8.02862 20.3701Z" fill="white"/>
<path d="M38.669 16.5671C38.669 17.5493 38.5732 18.5346 38.3843 19.4959C38.3062 19.893 38.5649 20.2783 38.962 20.3564C39.0097 20.3657 39.0573 20.3702 39.1041 20.3702C39.4473 20.3702 39.7537 20.128 39.8225 19.7786C40.0296 18.7244 40.1347 17.644 40.1347 16.5672C40.1347 14.4683 39.7472 12.4225 38.9829 10.4867C38.8343 10.1102 38.4085 9.9253 38.0323 10.0741C37.6558 10.2227 37.4711 10.6484 37.6198 11.0249C38.316 12.7884 38.669 14.6531 38.669 16.5671Z" fill="white"/>
</svg>
