<svg xmlns="http://www.w3.org/2000/svg" xmlns:xlink="http://www.w3.org/1999/xlink" width="350" zoomAndPan="magnify" viewBox="0 0 262.5 225" height="300" preserveAspectRatio="xMidYMid meet" version="1.0"><defs><filter x="0%" y="0%" width="100%" height="100%" id="d850b4d57c"><feColorMatrix values="0 0 0 0 1 0 0 0 0 1 0 0 0 0 1 0 0 0 1 0" color-interpolation-filters="sRGB"/></filter><clipPath id="c05085a57b"><path d="M 0 0.214844 L 262 0.214844 L 262 224.785156 L 0 224.785156 Z M 0 0.214844 " clip-rule="nonzero"/></clipPath><clipPath id="7ed796c9b6"><path d="M 0 68 L 262 68 L 262 224.785156 L 0 224.785156 Z M 0 68 " clip-rule="nonzero"/></clipPath><clipPath id="5efe44c962"><path d="M 182.511719 -17.289062 L 375.632812 151.917969 L 162.523438 395.148438 L -30.597656 225.945312 Z M 182.511719 -17.289062 " clip-rule="nonzero"/></clipPath><clipPath id="a69cb401a9"><path d="M 182.511719 -17.289062 L 375.632812 151.917969 L 162.523438 395.148438 L -30.597656 225.945312 Z M 182.511719 -17.289062 " clip-rule="nonzero"/></clipPath><clipPath id="26412fb561"><path d="M 0 3 L 262 3 L 262 224.785156 L 0 224.785156 Z M 0 3 " clip-rule="nonzero"/></clipPath><mask id="b81dbc03cc"><g filter="url(#d850b4d57c)"><rect x="-26.25" width="315" fill="#000000" y="-22.5" height="270" fill-opacity="0.6"/></g></mask><clipPath id="96486351b3"><path d="M 0 81 L 262 81 L 262 221.785156 L 0 221.785156 Z M 0 81 " clip-rule="nonzero"/></clipPath><clipPath id="7b5a26783e"><path d="M 182.59375 -2.574219 L 370.648438 162.191406 L 162.472656 399.789062 L -25.582031 235.027344 Z M 182.59375 -2.574219 " clip-rule="nonzero"/></clipPath><clipPath id="13dc530cb8"><path d="M 182.59375 -2.574219 L 370.648438 162.191406 L 162.472656 399.789062 L -25.582031 235.027344 Z M 182.59375 -2.574219 " clip-rule="nonzero"/></clipPath><clipPath id="14f9978692"><rect x="0" width="262" y="0" height="222"/></clipPath></defs><g clip-path="url(#c05085a57b)"><path fill="#ffffff" d="M 0 0.214844 L 262 0.214844 L 262 224.785156 L 0 224.785156 Z M 0 0.214844 " fill-opacity="1" fill-rule="nonzero"/><path fill="#d8e8ff" d="M 0 0.214844 L 262 0.214844 L 262 224.785156 L 0 224.785156 Z M 0 0.214844 " fill-opacity="1" fill-rule="nonzero"/></g><g clip-path="url(#7ed796c9b6)"><g clip-path="url(#5efe44c962)"><g clip-path="url(#a69cb401a9)"><path fill="#93bfff" d="M 0.863281 191.1875 C 11.199219 178.601562 22.40625 165.398438 37.910156 160.402344 C 50.652344 156.296875 64.515625 158.34375 77.765625 156.414062 C 101.136719 153.003906 120.832031 137.582031 138.15625 121.546875 C 155.480469 105.5 172.214844 87.890625 193.75 78.210938 C 209.265625 71.238281 226.484375 68.800781 243.5 68.433594 C 262.410156 68.027344 284.582031 72.179688 293.011719 89.109375 C 299.179688 101.507812 295.554688 116.492188 290.09375 129.222656 C 286.46875 137.671875 281.988281 146.183594 282.085938 155.378906 C 282.289062 174.53125 301.917969 188.863281 303.636719 207.945312 C 305.308594 226.464844 290.0625 241.523438 277.421875 255.15625 C 252.285156 282.292969 230.984375 316.402344 196.082031 328.644531 C 164.003906 339.902344 128.453125 329.433594 97.554688 315.253906 C 61.089844 298.507812 26.125 275.675781 3.433594 242.566406 C -1.917969 234.757812 -6.609375 226.21875 -8.082031 216.863281 C -9.550781 207.5 -5.566406 199.027344 0.863281 191.1875 Z M 0.863281 191.1875 " fill-opacity="1" fill-rule="nonzero"/></g></g></g><g clip-path="url(#26412fb561)"><g mask="url(#b81dbc03cc)"><g transform="matrix(1, 0, 0, 1, 0, 3)"><g clip-path="url(#14f9978692)"><g clip-path="url(#96486351b3)"><g clip-path="url(#7b5a26783e)"><g clip-path="url(#13dc530cb8)"><path fill="#5d9eff" d="M 5.378906 200.8125 C 15.464844 188.53125 26.394531 175.652344 41.523438 170.777344 C 53.953125 166.769531 67.480469 168.769531 80.402344 166.886719 C 103.203125 163.558594 122.417969 148.515625 139.324219 132.871094 C 156.222656 117.214844 172.550781 100.035156 193.558594 90.59375 C 208.695312 83.789062 225.496094 81.410156 242.09375 81.050781 C 260.546875 80.65625 282.175781 84.707031 290.398438 101.226562 C 296.417969 113.320312 292.878906 127.9375 287.550781 140.359375 C 284.015625 148.601562 279.644531 156.90625 279.738281 165.875 C 279.9375 184.5625 299.089844 198.542969 300.761719 217.160156 C 302.394531 235.230469 287.519531 249.917969 275.191406 263.21875 C 250.667969 289.691406 229.882812 322.96875 195.835938 334.914062 C 164.539062 345.898438 129.855469 335.683594 99.710938 321.847656 C 64.136719 305.515625 30.023438 283.238281 7.886719 250.9375 C 2.667969 243.316406 -1.910156 234.984375 -3.347656 225.859375 C -4.777344 216.726562 -0.890625 208.460938 5.378906 200.8125 Z M 5.378906 200.8125 " fill-opacity="1" fill-rule="nonzero"/></g></g></g></g></g></g></g></svg>