<!DOCTYPE svg PUBLIC "-//W3C//DTD SVG 1.1//EN" "http://www.w3.org/Graphics/SVG/1.1/DTD/svg11.dtd">
<!-- Uploaded to: SVG Repo, www.svgrepo.com, Transformed by: SVG Repo Mixer Tools -->
<svg width="64px" height="64px" viewBox="0 0 16.00 16.00" version="1.1" xmlns="http://www.w3.org/2000/svg" xmlns:xlink="http://www.w3.org/1999/xlink" fill="#ffffff" stroke="#ffffff" stroke-width="0.00016">
<g id="SVGRepo_bgCarrier" stroke-width="0"/>
<g id="SVGRepo_tracerCarrier" stroke-linecap="round" stroke-linejoin="round" stroke="#CCCCCC" stroke-width="0.128"/>
<g id="SVGRepo_iconCarrier"> <path fill="#ffffff" d="M15 3v10h-14v-10h14zM16 2h-16v12h16v-12z"/> <path fill="#ffffff" d="M9 5h5v1h-5v-1z"/> <path fill="#ffffff" d="M9 7h5v1h-5v-1z"/> <path fill="#ffffff" d="M9 9h2v1h-2v-1z"/> <path fill="#ffffff" d="M6.5 5c0 0 0 0 0 0-0.6 0-1.1 0.6-1.5 1-0.4-0.4-0.9-1-1.5-1 0 0 0 0 0 0-1.5 0-2.1 1.9-1 2.9l2.5 2.1 2.5-2.1c1.1-1 0.5-2.9-1-2.9z"/> </g>
</svg>