<svg id="Layer_1" data-name="Layer 1" xmlns="http://www.w3.org/2000/svg" viewBox="0 0 200.74 62.13"><defs><style>.cls-1{fill:#e33645;}.cls-2{fill:#2665af;}</style></defs><path class="cls-1" d="M57.52,44.43V57a11.72,11.72,0,0,1-2.27,7.13A10.14,10.14,0,0,1,47,68.2V54.92S36.75,55.48,36.75,66V94.06S25.87,87.55,26,77.53V62.36a20.07,20.07,0,0,1,6.28-12A22.44,22.44,0,0,1,47,44.44l.86,0C52.49,44.37,57.52,44.43,57.52,44.43Z" transform="translate(-26 -37.47)"/><path class="cls-2" d="M46.77,99.57V87A11.79,11.79,0,0,1,49,79.91a10.14,10.14,0,0,1,8.24-4.11V89.08S67.54,88.52,67.54,78V49.94s10.88,6.51,10.75,16.53V81.64a20.07,20.07,0,0,1-6.28,12,22.44,22.44,0,0,1-14.68,5.89c-.29,0-.57,0-.85,0C51.81,99.63,46.77,99.57,46.77,99.57Z" transform="translate(-26 -37.47)"/><path class="cls-2" d="M108,64.17H94.68V75.68h-6V47.78h5.94l0,11.2H108V47.75H114l0,27.9h-6V64.17Z" transform="translate(-26 -37.47)"/><path class="cls-2" d="M141,75.65H119.75V47.75h20.63v5.18h-14.7v6H138v5.19H125.71v6.28H141Z" transform="translate(-26 -37.47)"/><path class="cls-2" d="M165.84,75.65H145.61V47.78h5.93l0,22.67h14.26v5.2Z" transform="translate(-26 -37.47)"/><path class="cls-2" d="M174.84,68.8v6.88h-6V47.78h6V60.32l10.41-12.57h7.12L182,60.17l11.59,15.48h-7.12l-8.25-11Z" transform="translate(-26 -37.47)"/><path class="cls-2" d="M202.55,69.19l-2.64,6.45h-6.2l11.79-27.9h5.69L223,75.64h-6.16l-2.62-6.45Zm5.81-14.34L204.62,64h7.46Z" transform="translate(-26 -37.47)"/><path class="cls-1" d="M94.88,89.49H90v3.83H88.92V84.9H90v3.64h4.88V84.89H96v8.42H94.88Z" transform="translate(-26 -37.47)"/><path class="cls-1" d="M102.35,92.62a1.9,1.9,0,0,0,1.13-.35,2.28,2.28,0,0,0,.72-1l.83.4A3,3,0,0,1,104,93a2.82,2.82,0,0,1-1.65.48,2.64,2.64,0,0,1-2.11-.9,3.45,3.45,0,0,1-.77-2.31,3.32,3.32,0,0,1,.8-2.32,2.66,2.66,0,0,1,2.09-.9,2.56,2.56,0,0,1,2,.85,3.39,3.39,0,0,1,.79,2.21l-4.66.84a2.1,2.1,0,0,0,.62,1.22A1.72,1.72,0,0,0,102.35,92.62Zm-1.95-2.37,3.74-.66a2,2,0,0,0-.62-1.21,1.66,1.66,0,0,0-1.21-.42,1.75,1.75,0,0,0-1.39.63A2.57,2.57,0,0,0,100.4,90.25Z" transform="translate(-26 -37.47)"/><path class="cls-1" d="M113.35,92.55l.32,0v.71a2.35,2.35,0,0,1-.83.18.71.71,0,0,1-.54-.17.93.93,0,0,1-.19-.59,3.39,3.39,0,0,1-2.22.86,2.54,2.54,0,0,1-.61-.07,2.44,2.44,0,0,1-.62-.25,1.38,1.38,0,0,1-.52-.57,1.83,1.83,0,0,1-.2-.91,1.93,1.93,0,0,1,.1-.65,1.79,1.79,0,0,1,.23-.48,1.56,1.56,0,0,1,.38-.33,3.25,3.25,0,0,1,.42-.21,2.32,2.32,0,0,1,.47-.13l.43-.06.39,0a4.84,4.84,0,0,0,.61-.06c.17,0,.34-.06.53-.1a.83.83,0,0,0,.42-.22.49.49,0,0,0,.14-.37c0-.78-.43-1.17-1.28-1.17a2,2,0,0,0-.68.1,1.29,1.29,0,0,0-.47.29,2.24,2.24,0,0,0-.25.31,2,2,0,0,0-.16.3l-.82-.36a2.31,2.31,0,0,1,2.39-1.45,2.68,2.68,0,0,1,1.66.47,1.69,1.69,0,0,1,.61,1.43v3.25A.28.28,0,0,0,113.35,92.55Zm-4.37-.9c0,.74.42,1.1,1.27,1.07a2.74,2.74,0,0,0,1.8-.72V90.14a3.34,3.34,0,0,1-1.4.3,3.17,3.17,0,0,0-1.24.3A1,1,0,0,0,109,91.65Z" transform="translate(-26 -37.47)"/><path class="cls-1" d="M117.88,93.32h-1V84.43h1Z" transform="translate(-26 -37.47)"/><path class="cls-1" d="M122.87,87.32h1.39v.87h-1.39v3.1c0,.91.32,1.36,1,1.36a1.65,1.65,0,0,0,.84-.22l.32.74a2.11,2.11,0,0,1-1.22.34c-1.27,0-1.91-.73-1.91-2.2V88.19h-.72v-.87h.72v-2h1Z" transform="translate(-26 -37.47)"/><path class="cls-1" d="M131.36,87.08a1.6,1.6,0,0,1,1.31.53,2.92,2.92,0,0,1,.43,1.79v3.92h-1V89.67c0-.2,0-.35,0-.46a2.08,2.08,0,0,0-.06-.42,1,1,0,0,0-.15-.41.91.91,0,0,0-.31-.26,1.12,1.12,0,0,0-.5-.11,2.64,2.64,0,0,0-1.14.31A3.08,3.08,0,0,0,129,89v4.33h-1V84.43h1v3.69a3.16,3.16,0,0,1,1.06-.73A3,3,0,0,1,131.36,87.08Z" transform="translate(-26 -37.47)"/><path class="cls-1" d="M141.78,88.7l-.88.36a1.66,1.66,0,0,0-1.62-1,1.63,1.63,0,0,0-1.34.64,2.83,2.83,0,0,0,0,3.3,1.79,1.79,0,0,0,3.06-.57l.9.33a2.59,2.59,0,0,1-2.59,1.8,2.62,2.62,0,0,1-2.06-.91,3.67,3.67,0,0,1,0-4.6,2.62,2.62,0,0,1,2.06-.92,2.54,2.54,0,0,1,2.47,1.62Z" transform="translate(-26 -37.47)"/><path class="cls-1" d="M150,92.55l.32,0v.71a2.26,2.26,0,0,1-.83.18.74.74,0,0,1-.54-.17,1,1,0,0,1-.18-.59,3.39,3.39,0,0,1-2.22.86,2.54,2.54,0,0,1-.61-.07,2.44,2.44,0,0,1-.62-.25,1.32,1.32,0,0,1-.52-.57,1.83,1.83,0,0,1-.21-.91,2.21,2.21,0,0,1,.1-.65,2.15,2.15,0,0,1,.24-.48,1.39,1.39,0,0,1,.38-.33,2.72,2.72,0,0,1,.42-.21,2.32,2.32,0,0,1,.47-.13l.43-.06.38,0a4.65,4.65,0,0,0,.61-.06c.17,0,.35-.06.54-.1a.93.93,0,0,0,.42-.22.53.53,0,0,0,.14-.37c0-.78-.43-1.17-1.28-1.17a2,2,0,0,0-.68.1,1.21,1.21,0,0,0-.47.29,2.24,2.24,0,0,0-.25.31,1.39,1.39,0,0,0-.16.3l-.82-.36a2.3,2.3,0,0,1,2.39-1.45,2.68,2.68,0,0,1,1.66.47,1.69,1.69,0,0,1,.61,1.43v3.25C149.74,92.44,149.83,92.54,150,92.55Zm-4.36-.9c0,.74.42,1.1,1.27,1.07a2.78,2.78,0,0,0,1.8-.72V90.14a3.38,3.38,0,0,1-1.4.3,3.17,3.17,0,0,0-1.24.3A1,1,0,0,0,145.66,91.65Z" transform="translate(-26 -37.47)"/><path class="cls-1" d="M153.83,87.2a.74.74,0,0,1,.56.19,1.29,1.29,0,0,1,.2.74,1.86,1.86,0,0,1,.53-.62,1.9,1.9,0,0,1,1.89-.2l-.33.94a1.64,1.64,0,0,0-1.06-.08,2,2,0,0,0-1,.89v4.26h-1V88.39c0-.21-.09-.31-.28-.32l-.31,0v-.73A2.29,2.29,0,0,1,153.83,87.2Z" transform="translate(-26 -37.47)"/><path class="cls-1" d="M162.18,92.62a1.87,1.87,0,0,0,1.13-.35,2.14,2.14,0,0,0,.72-1l.83.4a3,3,0,0,1-1,1.34,2.82,2.82,0,0,1-1.65.48,2.62,2.62,0,0,1-2.1-.9,3.79,3.79,0,0,1,0-4.63,2.66,2.66,0,0,1,2.09-.9,2.56,2.56,0,0,1,2,.85,3.34,3.34,0,0,1,.79,2.21l-4.66.84a2.1,2.1,0,0,0,.62,1.22A1.73,1.73,0,0,0,162.18,92.62Zm-1.94-2.37,3.73-.66a2.09,2.09,0,0,0-.61-1.21,1.67,1.67,0,0,0-1.21-.42,1.75,1.75,0,0,0-1.4.63A2.63,2.63,0,0,0,160.24,90.25Z" transform="translate(-26 -37.47)"/><path class="cls-1" d="M179.24,86.8h-1.1a.94.94,0,0,0-.53-.83,2.63,2.63,0,0,0-1.34-.3,2.39,2.39,0,0,0-1.36.36,1.06,1.06,0,0,0-.53.94,1,1,0,0,0,.41,1,5,5,0,0,0,1.51.47l.78.19.69.17a4.79,4.79,0,0,1,.65.22,5.7,5.7,0,0,1,.51.32,1.44,1.44,0,0,1,.42.44,2.69,2.69,0,0,1,.24.56,2.5,2.5,0,0,1,.1.74,2.09,2.09,0,0,1-.95,1.83,4.24,4.24,0,0,1-2.45.65,4,4,0,0,1-2.47-.71,2,2,0,0,1-.86-1.92l1.2.15a1.11,1.11,0,0,0,.52,1.07,2.67,2.67,0,0,0,1.61.44,2.91,2.91,0,0,0,1.64-.4,1.24,1.24,0,0,0,.6-1.1,1.29,1.29,0,0,0-.12-.57,1.14,1.14,0,0,0-.28-.38,1.67,1.67,0,0,0-.49-.27,5.89,5.89,0,0,0-.57-.18l-.72-.17-1-.22a5.15,5.15,0,0,1-.82-.27,2.34,2.34,0,0,1-.73-.44,2.1,2.1,0,0,1-.43-.64,2.22,2.22,0,0,1-.19-.92,1.94,1.94,0,0,1,.91-1.66,3.68,3.68,0,0,1,2.14-.6,4.64,4.64,0,0,1,1.42.2,2.58,2.58,0,0,1,1.1.69A1.7,1.7,0,0,1,179.24,86.8Z" transform="translate(-26 -37.47)"/><path class="cls-1" d="M187.89,87.27l-2.3,6.18c0,.09-.1.25-.18.46s-.13.35-.16.43a3.5,3.5,0,0,1-.14.35A1.85,1.85,0,0,1,185,95l-.16.24a.73.73,0,0,1-.2.22l-.23.14a1.63,1.63,0,0,1-.31.11,1.86,1.86,0,0,1-1.6-.14l.28-.75a1,1,0,0,0,1.11.06,1,1,0,0,0,.38-.47,11.89,11.89,0,0,0,.4-1.17l-2.34-6h1.06L185.09,92l1.72-4.69Z" transform="translate(-26 -37.47)"/><path class="cls-1" d="M195.25,88.64h-1a.64.64,0,0,0-.37-.51,1.6,1.6,0,0,0-.86-.23,1.62,1.62,0,0,0-.91.26.73.73,0,0,0-.38.61.71.71,0,0,0,.32.62,2.71,2.71,0,0,0,1.11.35,4.67,4.67,0,0,1,1.88.62,1.42,1.42,0,0,1,.6,1.24,1.6,1.6,0,0,1-.76,1.39,3.19,3.19,0,0,1-1.87.52,3,3,0,0,1-1.9-.56,1.56,1.56,0,0,1-.64-1.51l1,.12a.82.82,0,0,0,.36.82,1.85,1.85,0,0,0,1.15.33,1.9,1.9,0,0,0,1.14-.31.9.9,0,0,0,.45-.77.76.76,0,0,0-.36-.68,3.42,3.42,0,0,0-1.24-.38,3.66,3.66,0,0,1-1.74-.62,1.47,1.47,0,0,1,.13-2.42A2.81,2.81,0,0,1,193,87.1a2.92,2.92,0,0,1,1.58.39A1.28,1.28,0,0,1,195.25,88.64Z" transform="translate(-26 -37.47)"/><path class="cls-1" d="M200.12,87.32h1.38v.87h-1.38v3.1c0,.91.32,1.36,1,1.36a1.65,1.65,0,0,0,.84-.22l.32.74a2.13,2.13,0,0,1-1.22.34c-1.27,0-1.91-.73-1.91-2.2V88.19h-.73v-.87h.73v-2h1Z" transform="translate(-26 -37.47)"/><path class="cls-1" d="M207.59,92.62a1.9,1.9,0,0,0,1.13-.35,2.28,2.28,0,0,0,.72-1l.83.4a3,3,0,0,1-1,1.34,2.82,2.82,0,0,1-1.65.48,2.64,2.64,0,0,1-2.11-.9,3.45,3.45,0,0,1-.77-2.31,3.32,3.32,0,0,1,.8-2.32,2.66,2.66,0,0,1,2.09-.9,2.56,2.56,0,0,1,2,.85,3.34,3.34,0,0,1,.79,2.21l-4.66.84a2.1,2.1,0,0,0,.62,1.22A1.72,1.72,0,0,0,207.59,92.62Zm-1.94-2.37,3.73-.66a2,2,0,0,0-.62-1.21,1.66,1.66,0,0,0-1.21-.42,1.75,1.75,0,0,0-1.39.63A2.57,2.57,0,0,0,205.65,90.25Z" transform="translate(-26 -37.47)"/><path class="cls-1" d="M221.3,87.08a1.57,1.57,0,0,1,1.31.54A2.9,2.9,0,0,1,223,89.4v3.92h-1V89.67c0-.2,0-.35,0-.46a2.08,2.08,0,0,0-.06-.42,1.22,1.22,0,0,0-.15-.41.91.91,0,0,0-.31-.26A1.12,1.12,0,0,0,221,88a2.69,2.69,0,0,0-1.13.3,3.06,3.06,0,0,0-.93.65v4.36h-1V89.39a3.25,3.25,0,0,0,0-.36,1,1,0,0,0-.09-.4l-.17-.3a.57.57,0,0,0-.3-.25,1.18,1.18,0,0,0-.45-.07,2.89,2.89,0,0,0-1.14.28,3,3,0,0,0-.92.64v4.39h-1V88.39c0-.2-.09-.31-.27-.32l-.32,0v-.73a2.21,2.21,0,0,1,.84-.17.7.7,0,0,1,.56.2,1.4,1.4,0,0,1,.2.74,3.47,3.47,0,0,1,2.37-1.06,1.5,1.5,0,0,1,1.61,1.18,3.26,3.26,0,0,1,1.08-.82A3.1,3.1,0,0,1,221.3,87.08Z" transform="translate(-26 -37.47)"/><path class="cls-1" d="M226.74,41.33v2.54H223v3.86h-2.57V43.87h-3.71V41.33h3.71V37.47H223v3.86Z" transform="translate(-26 -37.47)"/></svg>